<?xml version="1.0" encoding="UTF-8"?><svg id="Layer_1" xmlns="http://www.w3.org/2000/svg" viewBox="0 0 366.35 329.25"><defs><style>.cls-1{fill:#fff;}</style></defs><g id="Yg910Z.tif"><g><path class="cls-1" d="M325.89,263.01c.16,.84,.8,1.18,1.27,1.63,6.31,6.23,11.32,13.38,15.05,21.43,5.49,11.86,8.21,24.36,8.49,37.41,.06,2.68,1.18,4.36,3.31,4.97,3.4,.96,6.4-1.29,6.4-4.95,.01-9.31-1.52-18.41-4.07-27.33-3.82-13.36-10.05-25.43-19.5-35.74-.84-.92-1.56-1.21-2.78-.67-2.65,1.16-5.38,2.16-8.18,3.26Z"/><path class="cls-1" d="M8.99,329.25c-3.03-1.65-3.87-4.21-3.68-7.57,1.18-20.49,6.72-39.42,19.63-55.76,1.3-1.64,2.79-3.12,4.13-4.72,.71-.84,1.43-1.06,2.48-.68,2.79,1,5.6,1.93,8.62,2.96-1.89,1.96-3.75,3.77-5.47,5.68-9.81,10.9-15.29,23.86-18.01,38.11-1.06,5.58-1.67,11.21-1.62,16.9,.02,2.59-1.64,3.96-3.65,5.08h-2.43Z"/><path class="cls-1" d="M0,71.87c.54-5.87,3.89-10.1,8.19-13.7,6.67-5.58,14.46-9.15,22.51-12.16,15.8-5.89,32.19-9.43,48.77-12.25,13.31-2.26,26.69-4.08,40.14-4.98,4.85-.33,7.92-2.07,11.13-5.63C143.56,8.94,159.74,1.1,178.91,.11c24-1.24,43.46,8.12,58.92,26.22,.98,1.15,1.89,1.79,3.49,1.92,17.68,1.49,35.31,3.49,52.76,6.77,16.92,3.19,33.67,7.03,49.46,14.17,5.99,2.71,11.67,5.93,16.43,10.57,4.16,4.06,6.31,8.78,6.3,14.77-.1,49.51-.2,99.02,.08,148.53,.05,8.9-3.53,15.11-10.24,20.11-8.07,6-17.29,9.61-26.76,12.67-19.46,6.28-39.51,9.78-59.71,12.48-13.31,1.78-26.68,2.97-40.09,3.86-20.84,1.38-41.69,1.85-62.56,1.38-18.7-.42-37.36-1.47-55.97-3.41-20.21-2.11-40.27-5.07-59.97-10.2-12.43-3.24-24.61-7.15-35.77-13.72-4.33-2.55-8.35-5.48-11.5-9.48C1.64,234.04,.29,231.01,0,227.53c.02-.54,.07-1.08,.07-1.61M268.01,89.37c1.19,0,2.13-.06,3.06,.01,2.94,.21,4.64,1.88,4.66,4.8,.05,7.23,.05,14.45,0,21.68-.02,2.78-1.78,4.46-4.57,4.66-.99,.07-2.01-.18-3.14,.24,0,2.07,.01,4.15,0,6.23-.06,9.27-6.53,15.8-15.82,15.83-1.6,0-2.32,.43-2.86,2-5.07,14.8-12.5,28.28-23.45,39.55-2.52,2.59-2.82,5.1-2.37,8.17,.14,.93,.35,1.85,.59,2.77,2.65,10.51,9.2,18.18,17.89,24.19,12.6,8.72,26.95,12.9,41.84,15.27,12.93,2.05,25.28,5.52,36.49,12.47,.88,.55,1.67,.58,2.66,.27,4.57-1.44,9.11-2.94,13.54-4.79,5.3-2.21,10.49-4.65,15.02-8.27,3.28-2.62,5.06-5.73,5.02-10.22-.41-49.54,.48-99.09-.46-148.64-.08-4.37-1.68-7.5-4.86-10.13-1.61-1.34-3.32-2.55-5.13-3.6-8.7-5.07-18.13-8.31-27.75-11.04-20.43-5.79-41.32-9.15-62.4-11.42-19.07-2.05-38.17-3.53-57.35-3.89-19.72-.37-39.43,.22-59.12,1.39-17.52,1.05-34.97,2.72-52.32,5.39-17.62,2.71-35.05,6.25-51.89,12.21-7.52,2.66-14.88,5.68-21.22,10.72-3.19,2.54-4.84,5.57-4.83,9.89,.11,49.85,.1,99.69,0,149.54,0,3.83,1.4,6.63,4.16,8.97,1.18,1,2.42,1.96,3.72,2.8,7.73,4.99,16.33,7.97,24.97,10.89,1.55,.53,2.75,.36,4.15-.48,7.46-4.49,15.54-7.44,23.95-9.59,7.71-1.97,15.66-2.81,23.36-4.85,12.91-3.41,25.19-8.14,35.27-17.28,7.77-7.05,12.82-15.58,13.61-26.28,.08-1.07-.14-1.9-.94-2.71-11.63-11.71-19.62-25.66-24.99-41.17-.56-1.63-1.28-2.12-2.97-2.13-9.25-.02-15.7-6.59-15.74-15.9,0-2.07,0-4.15,0-6.39-.95,0-1.68,0-2.41,0-3.65-.05-5.32-1.68-5.33-5.34-.02-6.96-.03-13.91,.01-20.87,.02-3.05,1.7-4.75,4.73-4.94,.92-.06,1.86,0,3,0,0-4.1-.04-8,.01-11.9,.06-4.17,1.58-7.74,4.49-10.74,2.75-2.83,6.21-4.15,10.05-4.68,.53-5.54,1.63-10.8,3.74-15.82,.27-.64,.33-1.51,1.31-1.62,3.37-.37,6.75-.71,10.4-.77-1.46,3.01-2.66,5.79-3.56,8.68-.91,2.94-1.7,5.92-2.02,9.02h121.44c-.89-6.26-2.96-11.98-5.68-17.79,3.46,.25,6.55,.47,9.64,.68,1.07,.07,1.6,.59,1.94,1.67,1.45,4.64,2.71,9.32,3.51,14.12,.21,1.24,.61,1.87,2.05,2.15,7.98,1.54,12.9,7.63,12.93,15.76,.02,3.64,0,7.28,0,11.23Zm-116.18,105.22c-.21,.75-.36,1.26-.49,1.79-.13,.52-.21,1.06-.34,1.58-3.38,12.76-11.19,22.29-21.84,29.68-13.07,9.08-27.9,13.68-43.35,16.48-8.58,1.55-17.09,3.25-25.18,6.6-.67,.28-1.48,.4-2.23,1.27,41.32,8.97,82.9,11.99,124.75,11.98,41.87,0,83.45-3.14,124.46-12.17-.42-.42-.85-.61-1.28-.79-9.08-3.84-18.74-5.42-28.33-7.32-13.78-2.73-27.03-7.02-38.98-14.64-10.45-6.67-18.69-15.27-23.02-27.14-.85-2.32-1.41-4.75-2.14-7.23-20.61,13.22-41.24,13.51-62.03-.09Zm-44.2-79.07c.64-.37,1.1-.62,1.55-.9,7.14-4.37,14.27-8.74,21.41-13.11,1.14-.7,2.32-1.36,3.29,.23,.96,1.57-.24,2.33-1.25,3.12-.32,.25-.68,.44-1.03,.65-6.36,3.96-12.55,8.23-19.14,11.76-4.12,2.2-5.53,4.9-5.06,9.39,.43,4.14,2.43,6.47,6.65,6.47,13.91,.01,27.83-.02,41.74,.04,1.43,0,2.14-.51,2.81-1.7,2.96-5.23,6.03-10.39,9.04-15.58,1.23-2.13,2.73-4.01,4.72-5.48,8.64-6.39,19.97-3.93,25.83,5.65,3.06,5.01,6.07,10.05,9.03,15.12,.65,1.12,1.37,1.55,2.71,1.54,13.58-.06,27.15-.03,40.73-.04,.74,0,1.5,0,2.21-.18,3.07-.72,4.46-2.89,4.47-7,.01-15.6,0-31.2,0-46.8,0-.6-.04-1.21-.12-1.81-.48-3.48-2.65-5.44-6.13-5.44-45.73-.01-91.45-.01-137.18,0-4.07,0-6.41,2.38-6.42,6.42-.02,4.66,0,9.32,0,13.98,0,4.57,0,9.14,0,13.73,.83,.07,1.26-.43,1.76-.73,3.87-2.34,7.72-4.71,11.58-7.07,3.4-2.08,6.78-4.17,10.19-6.23,1-.6,2.04-.93,2.76,.4,.66,1.23,.1,2.04-1,2.64-.36,.19-.69,.42-1.03,.64-6.82,4.24-13.52,8.7-20.51,12.64-3.22,1.82-4.38,3.97-3.61,7.66Zm131.62,27.34c-.94,0-1.65,0-2.37,0-10.34,0-20.67-.06-31.01,.04-2.79,.03-4.48-1.05-5.81-3.46-3.46-6.26-7.03-12.46-10.71-18.59-3.49-5.82-10.74-5.63-14.1,.28-3.23,5.69-6.43,11.4-9.64,17.11-.26,.47-.47,.96-.68,1.46-1.02,2.45-2.31,2.93-4.99,2.79-4.31-.21-8.64-.07-12.97-.08-6.75,0-13.5,0-20.28,0,.02,.32-.02,.53,.05,.71,5.82,15.96,14.49,30.02,27.81,40.82,17.76,14.39,37.53,14.62,55.69,.79,10.58-8.06,18.19-18.54,24.15-30.31,1.85-3.66,3.51-7.4,4.86-11.56Zm-13.83-115.75c-25.74-25.05-65.28-21.11-84.84,0,28.3-1.88,56.28-1.9,84.84,0Z"/><path class="cls-1" d="M325.89,263.01c2.8-1.1,5.53-2.1,8.18-3.26,1.22-.54,1.93-.25,2.78,.67,9.45,10.31,15.67,22.38,19.5,35.74,2.55,8.92,4.08,18.02,4.07,27.33,0,3.66-3,5.91-6.4,4.95-2.13-.6-3.25-2.29-3.31-4.97-.28-13.05-3-25.54-8.49-37.41-3.72-8.05-8.74-15.19-15.05-21.43-.46-.46-1.11-.79-1.27-1.63Z"/><path class="cls-1" d="M287.91,150.54c0-16.07,.05-32.14-.04-48.21-.02-3.06,1.22-4.86,3.95-6.11,17.6-8.04,35.17-16.16,52.75-24.26,.37-.17,.74-.33,1.12-.48,2.4-.91,4.68-.32,5.98,1.52,1.24,1.77,1,4.64-.52,6.4-.72,.84-1.65,1.36-2.64,1.82-16.38,7.48-32.74,14.98-49.13,22.44-1.25,.57-1.77,1.22-1.77,2.69,.05,29.51,.06,59.02-.01,88.53,0,1.73,.74,2.3,2.1,2.87,16.3,6.81,32.58,13.66,48.87,20.51,3.17,1.33,4.29,3.03,3.83,5.8-.52,3.14-3.39,4.8-6.34,3.58-18.37-7.62-36.73-15.27-55.1-22.89-2.28-.94-3.04-2.68-3.04-4.97,0-8.51,0-17.02,0-25.52,0-7.9,0-15.8,0-23.7Z"/><path class="cls-1" d="M78.75,150.97c0,16.14,0,32.28,0,48.42,0,3.84-.66,4.83-4.14,6.29-17.59,7.39-35.19,14.78-52.78,22.17-3.13,1.31-5.74,.32-6.96-2.68-1.03-2.54,.19-4.89,3.27-6.19,16.41-6.9,32.81-13.82,49.25-20.65,1.63-.68,2.14-1.5,2.14-3.26-.06-29.44-.06-58.89,0-88.33,0-1.76-.53-2.58-2.12-3.3-16.52-7.49-33-15.07-49.49-22.63-2.36-1.08-3.44-2.85-3.21-5.08,.21-2.03,1.63-3.64,3.64-4.12,1.24-.29,2.41-.02,3.54,.49,17.86,8.13,35.72,16.26,53.58,24.38,2.27,1.03,3.32,2.69,3.31,5.25-.06,16.41-.03,32.82-.03,49.23Z"/><path class="cls-1" d="M25.7,150.51c0-15.73,0-31.47,0-47.2,0-.41,0-.81,0-1.22-.02-1.47,.29-2.94,2.02-2.92,1.74,.01,1.96,1.47,1.95,2.95-.02,32.21-.01,64.42,0,96.63,0,1.48-.21,2.92-1.99,2.91-1.77,0-2-1.48-2-2.94,0-16.07,0-32.14,0-48.21Z"/><path class="cls-1" d="M337.01,150.52c0-15.73,0-31.47,0-47.2,0-.41,0-.81,0-1.22-.02-1.47,.28-2.94,2.01-2.94,1.74,0,1.97,1.46,1.97,2.94-.01,32.21-.01,64.42,0,96.63,0,1.48-.2,2.92-1.97,2.92-1.77,0-2.01-1.46-2.01-2.93,0-16.07,0-32.14,0-48.21Z"/><path class="cls-1" d="M44.7,150.28c0-9.85,0-19.7,0-29.55,0-.67-.04-1.37,.11-2.01,.22-.92,.84-1.53,1.88-1.53,1.04,0,1.64,.61,1.87,1.53,.15,.57,.11,1.2,.11,1.81,0,19.97,0,39.94,0,59.9,0,.54,.06,1.11-.08,1.61-.28,.98-.91,1.71-2.02,1.65-.99-.05-1.59-.75-1.81-1.66-.14-.58-.07-1.21-.07-1.81,0-9.98,0-19.97,0-29.95Z"/><path class="cls-1" d="M318.63,150.53c0-9.99,0-19.97,0-29.96,0-.67-.06-1.37,.11-2.01,.22-.85,.87-1.36,1.79-1.35,.92,0,1.57,.49,1.77,1.37,.15,.64,.12,1.34,.12,2.01,0,19.91,0,39.81,0,59.72,0,.54,.02,1.08-.04,1.62-.11,1.11-.81,1.76-1.86,1.77-1.06,0-1.72-.71-1.86-1.78-.07-.53-.04-1.08-.04-1.62,0-9.92,0-19.84,0-29.76Z"/></g></g></svg>