<?xml version="1.0" encoding="UTF-8"?><svg id="Layer_1" xmlns="http://www.w3.org/2000/svg" viewBox="0 0 459.74 413"><defs><style>.cls-1{fill:#fff;}</style></defs><path class="cls-1" d="M20.26,66.41H317.87c5.18,0,8.88-3,8.88-7.21s-3.7-7.21-8.88-7.21H20.26c-5.18,0-8.88,3.6-8.88,7.21,0,4.2,3.7,7.21,8.88,7.21Z"/><path class="cls-1" d="M317.87,265.09h1.48v-63.93c-4.44,.97-9.62,1.94-14.81,2.91v51.34H33.58V73.3H304.54v100.25c7.4-1.94,8.88-3.87,14.81-4.84V63.62H18.78v201.47h1.48c-5.18,0-8.88,2.91-8.88,5.81,0,3.39,3.7,5.81,8.88,5.81H117.24l-36.28,78.94c-1.48,2.42,.74,5.33,5.18,5.81,3.7,.97,8.14-.48,8.88-3.39l37.76-81.36h66.63l37.76,81.36c1.48,2.42,5.18,3.87,8.88,3.39,3.7-.97,5.92-3.39,5.18-5.81l-36.28-78.94h102.91c5.18,0,8.88-2.42,8.88-5.81,0-2.91-3.7-5.81-8.88-5.81Z"/><path class="cls-1" d="M456.04,216.67c-3.39-23.25-31-64.9-36.32-67.8-.48-1.45-28.57-18.89-63.93,0-.48,0-.48,.48-.48,.48-6.78,3.39-3.39,8.72-11.62,18.4h0c-9.69,11.62-25.18,14.04-40.68,12.11h-1.45l2.42,1.94c1.94,1.45,2.91,3.87,2.91,6.3s-.97,4.84-2.42,6.3c-1.94,1.94-3.87,2.91-6.3,2.91h-1.45c1.45,.97,2.91,1.45,4.36,1.94,3.87,.48,7.75,.48,11.14,.48,20.82,0,36.81-8.23,44.07-17.43,0,2.42-.48,4.84-1.94,6.78v49.4c0,4.36,1.94,8.72,5.33,11.14l-4.36,87.17c-.48,8.23,5.81,15.01,13.56,15.01h.97c7.75,0,14.04-5.81,14.53-13.56l4.36-84.75,4.36,85.24c.48,7.75,6.78,13.56,14.53,13.56h.97c8.23-.48,14.04-7.26,13.56-15.01l-4.36-89.6c5.33-6.78,1.94-9.69,2.91-63.93,7.26,12.11,14.53,26.15,15.98,36.32,.97,5.33,5.81,8.72,11.14,8.23,5.33-.97,8.72-6.3,8.23-11.62Zm-60.54-64.9l-2.91,11.14h-9.69l-3.39-11.62c0-3.39,15.98-3.39,15.98,.48Zm-13.08,16.47h10.65l2.91,39.71h0l-8.23,10.65-8.23-10.65h0l2.91-39.71Z"/><circle class="cls-1" cx="387.75" cy="107.7" r="27.61"/><path class="cls-1" d="M240.25,129.87l49.77,55.77,3.43,3.86,2.15,2.15c1.29,1.72,3.86,1.72,5.58,0,.86-.86,.86-1.72,.86-2.57s-.43-2.15-1.29-2.57l-3.86-3.43-3.43-3-53.2-50.2Z"/><path class="cls-1" d="M56.53,239.9c-20.73,4.84-11.1,15.5-11.1,15.5H115.76c2.22-15.5-11.1-15.5-11.1-15.5H56.53Z"/><path class="cls-1" d="M112.21,189.59c1.54-1.32,2.81-2.57,4.25-3.59,1.92-1.35,3.96-1.38,5.38-.32,1.5,1.12,2.13,3.34,1.39,5.51-1.34,3.97-4.49,6.12-8.11,7.68-1.25,.54-2.62,.92-3.97,1.09-.64,.08-1.48-.4-1.98-.88-.22-.21,.2-1.07,.32-1.63,.1-.46,.3-.93,.28-1.39-.3-7.57,.23-15.07,1.73-22.49,.15-.72,.24-1.52,.63-2.1,.35-.52,1.16-1.15,1.62-1.05,.48,.11,1.13,1.05,1.1,1.58-.1,1.55-.46,3.1-.81,4.63-.26,1.12-.86,2.19-.99,3.32-.36,3.17-.56,6.36-.83,9.64Zm.37,7.03c2.73-.23,7.09-3.39,7.97-5.68,.14-.36,.22-.76,.25-1.14,.12-1.46-.94-2.37-2.24-1.69-2.84,1.47-4.9,3.74-5.95,6.8-.18,.51-.02,1.13-.02,1.71Z"/><path class="cls-1" d="M187.45,189.58c1.52-1.33,2.59-2.54,3.91-3.36,1.08-.66,2.46-1.23,3.68-1.19,2.97,.11,4.63,3.3,3.22,6.47-.79,1.78-2.15,3.42-3.59,4.76-2.23,2.09-5.07,3.22-8.09,3.66-.7,.1-1.59-.32-2.18-.78-.21-.16,.29-1.14,.35-1.76,.12-1.25,.27-2.51,.23-3.76-.23-7.12,.49-14.15,1.93-21.12,.09-.43,.2-.95,.49-1.21,.45-.42,1.09-.92,1.62-.88,.38,.03,1.03,.93,.97,1.36-.27,1.87-.77,3.7-1.15,5.55-.29,1.43-.62,2.85-.77,4.3-.26,2.53-.4,5.08-.62,7.95Zm.26,6.9c.17,.1,.33,.2,.5,.3,3.05-1.23,5.97-2.69,7.5-5.87,.33-.69,.24-2.05-.23-2.51-.42-.4-1.8-.25-2.48,.14-2.13,1.23-3.73,3.07-4.78,5.3-.37,.79-.35,1.76-.51,2.65Z"/><path class="cls-1" d="M256.75,185.53c.42-3.53,.79-6.86,1.24-10.17,.18-1.31,.41-2.64,.84-3.89,.17-.49,.93-.78,1.42-1.16,.31,.52,.95,1.08,.89,1.56-.41,3.36-1.07,6.68-1.44,10.04-.3,2.74-.46,5.52-.38,8.27,.1,3.19,.54,6.37,.83,9.56,.04,.49,.2,1.04,.05,1.47-.21,.57-.66,1.04-1.01,1.56-.49-.44-1.29-.8-1.43-1.33-.37-1.52-.48-3.11-.68-4.67-.04-.33-.06-.67-.12-1.34-.62,.73-1.02,1.33-1.54,1.77-.9,.75-1.79,1.6-2.84,2.05-2.58,1.08-5.19-.59-5.25-3.37-.1-4.58,2.2-7.98,5.71-10.63,1.13-.86,2.42-.61,3.71,.29Zm-2.09,2c-2.63,1.7-4.21,4.01-4.78,6.97-.11,.6,.15,1.64,.59,1.89,.46,.27,1.43,.03,1.99-.3,2.15-1.27,3.14-3.43,3.92-5.68,.07-.21-.07-.56-.21-.78-.43-.65-.9-1.26-1.52-2.11Z"/><path class="cls-1" d="M142.72,143.7c0,1.96,.01,3.58,0,5.21,0,.54,.04,1.12-.15,1.6-.17,.43-.62,1.04-.96,1.05-.47,.02-1.22-.34-1.39-.74-.34-.78-.53-1.71-.49-2.56,.23-4.32,.47-8.64,.89-12.95,.34-3.42,.95-6.81,1.42-10.22,.15-1.05,.64-1.7,1.76-1.46,1.07,.23,1.09,1.01,.94,1.96-.57,3.59-1.08,7.2-1.58,10.8-.07,.52-.01,1.06-.01,1.73,3.11-.76,5.96-1.77,8.54-3.45,.85-.55,1.82-1.26,2.56-.12,.68,1.05,.06,2.12-.93,2.61-2.45,1.22-4.98,2.29-7.49,3.4-.44,.2-.92,.3-1.66,.53,1.41,1.47,2.68,2.81,3.97,4.14,1.34,1.38,2.71,2.73,4.07,4.1,.72,.73,1.49,1.56,.52,2.52-.92,.92-1.86,.28-2.58-.44-2.16-2.16-4.28-4.37-6.41-6.57-.3-.31-.58-.65-1.01-1.14Z"/><path class="cls-1" d="M169.48,191.04c0,1.71,0,3.52,0,5.33,0,.85,0,1.79-1.1,1.96-1.16,.18-1.62-.67-1.71-1.6-.11-1.1,0-2.22,0-3.33,0-7.16,.87-14.24,2.08-21.28,.1-.55,.32-1.22,.72-1.54,.32-.26,1.21-.31,1.46-.07,.38,.37,.64,1.11,.58,1.65-.26,2.19-.69,4.37-1,6.56-.28,1.98-.48,3.97-.75,6.18,3.07-.76,5.82-1.71,8.33-3.28,.38-.23,.72-.62,1.13-.68,.53-.09,1.33-.14,1.58,.16,.32,.38,.47,1.31,.22,1.67-.55,.77-1.31,1.53-2.15,1.93-2.48,1.17-5.05,2.16-7.7,3.27,.29,.34,.64,.79,1.04,1.19,2.28,2.33,4.56,4.66,6.85,6.97,.72,.73,1.27,1.56,.45,2.43-.83,.88-1.73,.37-2.46-.31-2.51-2.37-5-4.75-7.57-7.2Z"/><path class="cls-1" d="M142.07,103.55c-1.07,1.22-1.82,2.21-2.7,3.06-1.32,1.27-2.9,1.97-4.72,1.16-1.74-.77-2.1-2.42-2.1-4.09,0-1.52,.31-3.04,.38-4.56,.06-1.22,.03-2.45-.05-3.67-.06-.84-.4-1.74,.8-2.03,1.2-.29,1.89,.41,1.92,1.46,.07,2.25-.05,4.5-.12,6.75-.02,.64-.19,1.28-.14,1.91,.04,.49,.21,1.27,.51,1.36,.47,.16,1.31,.05,1.62-.28,1.1-1.18,2.11-2.45,3.01-3.79,.6-.89,.87-1.99,1.44-2.9,.27-.42,.96-.87,1.38-.81,.43,.07,.9,.69,1.11,1.18,.22,.52,.19,1.16,.21,1.75,.12,4.5,.22,9-2.11,13.1-2.55,4.48-8.16,5.86-12.32,5.27-.37-.05-.85-.21-1.04-.49-.33-.49-.76-1.18-.63-1.65,.11-.41,.91-.81,1.45-.87,1.46-.18,2.97-.01,4.4-.27,4.25-.78,6.72-3.47,7.3-7.78,.16-1.16,.25-2.33,.4-3.8Z"/><path class="cls-1" d="M99.56,145.23c1.88-1.62,3.63-3.14,5.4-4.62,.53-.44,1.12-.81,1.73-1.14,1.96-1.09,3.4-.17,3.44,2.05,.06,3.34,.25,6.68,.31,10.02,0,.49-.38,1-.59,1.49-.51-.22-1.34-.33-1.48-.69-.45-1.22-.81-2.52-.93-3.82-.15-1.75-.04-3.52-.04-5.69-3.14,2.02-5.46,4.13-6.97,7.04-.27,.52-.43,1.13-.77,1.59-.32,.42-1,1.08-1.2,.98-.59-.29-1.19-.83-1.45-1.42-.24-.52,0-1.25-.03-1.88-.29-6.66,1.13-13.13,2.25-19.63,.26-1.5,.44-3.02,.8-4.5,.13-.53,.67-.95,1.02-1.42,.5,.4,1.18,.71,1.45,1.24,.26,.5,.19,1.24,.09,1.84-.99,5.97-2.02,11.93-3.04,17.89-.03,.19,0,.39,0,.66Z"/><path class="cls-1" d="M223.97,149.16c-1.25,.88-2.22,1.75-3.34,2.32-3.17,1.62-6.22-.29-6.19-3.84,0-.91,.18-1.89,.55-2.72,1.63-3.62,4.4-6.16,8.02-7.7,2.27-.96,3.25-.24,3.81,2.15,.53,2.27,.69,4.42,.06,6.75-.4,1.49,.05,3.21,.15,4.83,.06,.91,.49,1.95-.91,2.24-1.06,.21-1.72-.46-1.9-1.91-.09-.68-.16-1.35-.25-2.12Zm-6.73-2.15c-.03,1.82,.68,2.38,2.03,2,2.5-.71,5.56-5.29,5.19-7.8-.14-1.01-.61-1.44-1.6-.84-2.19,1.33-3.97,3.06-5.2,5.32-.27,.5-.36,1.1-.43,1.31Z"/><path class="cls-1" d="M111.64,107.47c-1.25,.85-2.38,1.84-3.69,2.45-3.01,1.4-6.18-.9-5.83-4.22,.13-1.19,.48-2.44,1.06-3.48,1.67-3.02,4.17-5.24,7.34-6.61,2.45-1.06,3.5-.23,4.11,2.32,.57,2.38,.26,4.62-.05,6.96-.2,1.52,.08,3.1,.21,4.65,.08,.88,.21,1.74-.96,1.94-1.12,.19-1.64-.43-1.8-1.46-.13-.87-.26-1.75-.38-2.55Zm.42-6.56c.07-2.37-.31-2.88-1.26-2.34-2.66,1.52-4.88,3.51-5.82,6.55-.18,.59,0,1.56,.41,1.97,.33,.33,1.36,.31,1.87,.05,2.81-1.44,4.34-3.84,4.8-6.23Z"/><path class="cls-1" d="M52.78,107.71c-1.65,.9-3.06,2-4.64,2.46-2.56,.74-4.74-1.13-4.92-3.82-.12-1.92,.54-3.59,1.62-5.1,1.78-2.49,3.99-4.5,6.85-5.68,2.36-.97,3.37-.27,3.92,2.15,.52,2.27,.63,4.41,.06,6.74-.4,1.59,.08,3.4,.18,5.12,.05,.85,.25,1.75-.99,1.92-1.16,.16-1.59-.58-1.78-1.53-.16-.8-.22-1.62-.3-2.25Zm-6.75-2.47c-.03,1.86,.61,2.41,1.91,2.12,2.5-.56,5.77-5.36,5.35-7.87-.17-.99-.75-1.55-1.61-.79-1.72,1.52-3.36,3.14-4.92,4.82-.49,.53-.6,1.41-.73,1.72Z"/><path class="cls-1" d="M145.36,196.14c-1.65,.9-3.06,1.99-4.65,2.45-2.55,.74-4.8-1.14-4.87-3.84-.02-.96,.07-2.01,.44-2.88,1.63-3.8,4.5-6.42,8.3-7.98,1.74-.71,3.27-.09,3.54,1.24,.14,.72,.09,1.5,.34,2.17,.68,1.87,.06,3.6-.2,5.43-.25,1.76,.1,3.61,.2,5.42,.04,.76,.15,1.52-.88,1.73-1.03,.21-1.62-.29-1.83-1.23-.2-.89-.29-1.81-.39-2.51Zm.53-8.11c-.07-.15-.15-.86-.51-1.05-.33-.18-1.08,.03-1.44,.32-1.26,1.02-2.58,2.02-3.59,3.26-.8,.99-1.42,2.26-1.67,3.51-.31,1.52,.7,2.13,2.2,1.57,2.32-.86,5-4.72,5.01-7.61Z"/><path class="cls-1" d="M226.29,195.89c-1.22,.86-2.22,1.76-3.39,2.34-3.16,1.58-6.18-.38-6.12-3.96,.02-.86,.19-1.79,.54-2.57,1.65-3.68,4.44-6.24,8.13-7.76,2.21-.91,3.16-.17,3.71,2.12,.55,2.32,.66,4.51,.06,6.89-.4,1.59,.06,3.41,.21,5.12,.07,.84,.16,1.62-.92,1.83-1.04,.21-1.6-.35-1.79-1.29-.18-.88-.28-1.79-.42-2.72Zm-6.72-2.08c0,1.74,.68,2.28,1.98,1.95,2.47-.62,5.57-5.19,5.28-7.78-.14-1.2-.63-1.49-1.67-.86-2.15,1.29-3.91,3.01-5.12,5.23-.29,.55-.39,1.2-.47,1.46Z"/><path class="cls-1" d="M123.4,149.4c-1.59,.87-3.03,1.99-4.65,2.47-2.54,.75-4.72-1.17-4.87-3.86-.12-2.15,.71-3.95,1.98-5.57,1.75-2.24,3.84-4.11,6.51-5.19,2.35-.94,3.21-.18,3.95,2.18,.85,2.69,.14,5.18-.08,7.77-.11,1.25,.15,2.54,.24,3.81,.06,.91,.41,2.01-1.01,2.18-1.34,.16-1.62-.82-1.78-1.87-.1-.71-.21-1.41-.28-1.93Zm-6.74-2.32c0,1.74,.66,2.28,1.97,1.96,2.45-.6,5.65-5.28,5.32-7.77-.16-1.18-.69-1.49-1.7-.88-2.11,1.27-3.85,2.93-5.04,5.1-.32,.59-.44,1.28-.55,1.59Z"/><path class="cls-1" d="M170.22,107.46c-1.27,.89-2.28,1.79-3.45,2.37-3.08,1.53-6.13-.43-6.08-3.89,.02-1.01,.24-2.09,.68-2.99,1.65-3.42,4.33-5.86,7.79-7.36,2.36-1.03,3.32-.33,3.92,2.13,.56,2.28,.63,4.43,.07,6.76-.39,1.6,0,3.41,.19,5.12,.09,.87,.18,1.61-.85,1.86-1.01,.24-1.63-.23-1.82-1.22-.18-.9-.3-1.82-.45-2.77Zm.51-7.89c-.06-.14-.17-.85-.56-1.08-.3-.18-1.06,.12-1.43,.43-1.28,1.06-2.61,2.11-3.66,3.38-.75,.9-1.32,2.09-1.55,3.24-.32,1.6,.7,2.25,2.24,1.67,2.35-.88,4.94-4.64,4.96-7.64Z"/><path class="cls-1" d="M88.59,104.3c.34-1.97,.53-3.58,.91-5.14,.21-.84,.67-1.64,1.14-2.38,1.31-2.06,3.21-2.75,5.01-1.9,2.11,.99,3.11,3.17,2.46,5.42-.66,2.25-2.25,3.77-4.11,5.06-.44,.3-.91,.56-1.36,.83,.81,1.56,2.03,2.2,3.63,1.97,.63-.09,1.32-.29,1.9-.14,.57,.15,1.43,.68,1.44,1.05,.01,.56-.49,1.47-.99,1.66-2.23,.85-6.06,.68-8.05-2.32-.55-.83-1.09-1.23-2.18-1.32-1.21-.1-2.48-.64-3.5-1.32-.45-.3-.66-1.57-.41-2.15,.4-.93,1.27-.51,2.02-.11,.66,.35,1.4,.54,2.09,.79Zm3.25-.87c1.69-1,3.28-1.95,3.63-3.92,.09-.54-.41-1.42-.9-1.74-.31-.2-1.35,.17-1.64,.59-1.03,1.43-1.42,3.08-1.08,5.07Z"/><path class="cls-1" d="M187.61,146.04c2.74-2.4,5.18-4.61,7.71-6.71,.47-.38,1.52-.62,1.94-.36,.53,.34,.99,1.27,.97,1.92-.11,3.25-.35,6.49-.65,9.72-.07,.69,.15,1.97-1.16,1.82-1.16-.13-1.61-1.12-1.51-2.2,.19-2.16,.48-4.3,.72-6.45,.03-.29,.04-.57,.08-1.19-3.01,2.22-5.42,4.59-6.94,7.77-.13,.27-.18,.59-.36,.8-.33,.38-.81,1.03-1.09,.97-.53-.12-1.22-.57-1.39-1.05-.42-1.19-.87-2.49-.79-3.72,.22-3.57,.67-7.13,1.1-10.69,.05-.4,.48-1.06,.74-1.07,.46,0,1.2,.29,1.35,.65,.29,.73,.41,1.6,.32,2.38-.27,2.43-.67,4.84-1.03,7.38Z"/><path class="cls-1" d="M181.36,143.53c-.23,2.95-.79,5.76-3.36,7.69-2.42,1.82-5.17,1.42-6.96-1.03-2.43-3.32-1.61-9.21,1.84-11.88,1.21-.93,2.35-2.55,4.37-1.55,2.41,1.19,3.74,3.11,4.1,5.73,.05,.34,0,.69,0,1.03Zm-9.36,1.63c.12,.06,.24,.13,.35,.19,.04,.49-.08,1.08,.15,1.45,.56,.91,1.12,2.01,1.98,2.49,1.02,.57,1.92-.36,2.57-1.21,1.28-1.67,2.06-3.53,1.44-5.62-.23-.78-.91-1.59-1.61-2.03-1.01-.63-2.24-.31-2.87,.65-.83,1.26-1.35,2.72-2.01,4.09Z"/><path class="cls-1" d="M213.37,190.31c-.17,3.03-.81,5.85-3.49,7.75-2.32,1.64-4.9,1.27-6.65-.96-2.63-3.35-1.78-9.5,1.85-12.2,1.19-.88,2.3-2.43,4.27-1.41,2.33,1.21,3.67,3.04,4.01,5.62,.05,.39,0,.79,0,1.18Zm-2.55,.94c-.01-2.77-.81-3.92-2.43-4.28-1.29-.28-2.76,.53-3.31,2.27-.44,1.41-.67,3.01-.47,4.45,.12,.87,1.09,1.89,1.94,2.32,1.05,.54,2.02-.33,2.55-1.25,.77-1.33,1.36-2.77,1.72-3.52Z"/><path class="cls-1" d="M131.46,148.06c.24-7.61-.09-15.29,2.35-22.67,.22-.66,.8-1.2,1.21-1.79,.75,.58,1.7,1.03,2.16,1.78,.26,.42-.08,1.55-.52,2-1.45,1.47-1.21,3.38-1.49,5.11-.97,6.02-.87,12.08-.36,18.14,.04,.44,.08,.9,.02,1.33-.05,.36-.18,.92-.4,.98-.35,.11-.91,.01-1.2-.22-1.22-.94-1.61-2.3-1.71-3.78-.02-.3-.03-.59-.05-.89Z"/><path class="cls-1" d="M127.74,194.64c.04-7.54-.19-15.11,2.18-22.4,.23-.7,.83-1.28,1.26-1.92,.74,.58,1.63,1.05,2.19,1.78,.62,.82-.16,1.44-.62,2.17-.59,.95-.98,2.1-1.18,3.21-1.17,6.45-1.2,12.94-.66,19.45,.04,.49,.09,.99,.04,1.48-.05,.45-.24,.89-.37,1.33-.52-.19-1.33-.24-1.52-.6-.72-1.4-1.24-2.9-1.83-4.37,.17-.05,.34-.09,.52-.14Z"/><path class="cls-1" d="M82.76,145.53c.11-2.74,1.57-5.87,4.7-8.01,.99-.68,2.35-.95,3.58-1.1,1.07-.13,1.96,.55,1.92,1.76-.04,1.18-.79,2.1-2,1.85-1.88-.39-3.05,.33-4.06,1.78-1.26,1.8-1.72,3.76-1.27,5.88,.33,1.59,1.91,2.25,3.51,1.43,.85-.44,1.49-1.28,2.33-1.76,.5-.28,1.19-.22,1.8-.32,.1,.71,.51,1.56,.26,2.1-1.07,2.28-4.58,3.68-7.11,3.02-2.26-.59-3.67-2.74-3.66-6.64Z"/><path class="cls-1" d="M237.18,188.14c1.09-1.13,2.01-2.4,3.22-3.25,1.17-.82,2.59-1.36,3.98-1.77,1.14-.33,2.02,.34,2.32,1.52,.3,1.21-.66,1.56-1.48,1.83-.96,.32-2.1,.26-2.94,.75-2.16,1.24-3.39,3.27-4,5.64-.46,1.76-.7,3.57-1.17,5.32-.15,.55-.75,.97-1.14,1.45-.48-.56-1.3-1.09-1.36-1.69-.11-1.25,.15-2.53,.35-3.79,.32-1.99,.16-3.88-.67-5.76-.39-.87-.56-1.92-.52-2.87,.03-.61,.63-1.19,.98-1.78,.55,.44,1.31,.77,1.59,1.33,.45,.94,.58,2.03,.85,3.05Z"/><path class="cls-1" d="M152.33,193.23c.14-3.67,1.43-6.42,3.94-8.4,1.13-.89,2.69-1.36,4.13-1.7,1.13-.26,2.01,.47,2.17,1.7,.13,1.03-.93,2.11-2.13,1.91-1.65-.28-2.8,.15-3.76,1.5-1.19,1.67-1.94,3.47-1.65,5.52,.33,2.29,2.16,3.07,4.16,1.83,.62-.38,1.06-1.07,1.69-1.41,.56-.3,1.44-.62,1.89-.38,.85,.45,.79,1.38,.3,2.2-1.33,2.24-4.8,3.59-7.25,2.82-2.35-.74-3.68-3.05-3.49-5.6Z"/><path class="cls-1" d="M61.63,108.9c.47,.05,.77,.09,1.06,.1,2.28,.03,2.87-.72,2.19-2.88-.58-1.83-1.22-3.64-1.87-5.44-1.24-3.43-.41-5.45,2.86-6.95,1.71-.78,3.72,.1,4.07,1.81,.21,1.02-.16,1.64-1.26,1.68-.34,.01-.69-.02-1.04-.03-2.4-.05-2.86,.63-2.05,2.96,.77,2.23,1.59,4.45,2.2,6.73,.71,2.65-.39,4.35-3.1,4.82-1.28,.22-2.64,.16-3.95,.08-1-.06-1.88-.5-1.71-1.76,.16-1.21,1.09-1.22,2.03-1.15,.25,.02,.49,.02,.56,.03Z"/><path class="cls-1" d="M120.84,109c.59-.03,1.18-.01,1.76-.1,1.18-.17,1.78-.79,1.37-2.05-.67-2.01-1.3-4.03-2.03-6.01-1.28-3.51-.62-5.33,2.65-7.05,1.85-.97,4.17,.15,4.23,2.04,.03,.9-.32,1.42-1.28,1.4-.1,0-.2,.01-.3,0-3.01-.48-3.87,.33-2.5,3.75,.87,2.18,1.51,4.47,2.04,6.76,.4,1.75-.48,3.25-2.2,3.65-1.59,.37-3.28,.41-4.93,.4-.98,0-1.84-.48-1.7-1.76,.14-1.31,1.1-1.17,1.99-1.15,.3,0,.59,.03,.89,.04,0,.03,0,.05,0,.08Z"/><path class="cls-1" d="M185.17,97.2c-2.43-.05-2.9,.64-2.13,2.88,.75,2.18,1.58,4.35,2.18,6.57,.79,2.91-.3,4.63-3.25,5.08-1.38,.21-2.83,.08-4.23-.06-.89-.09-1.33-.75-1.18-1.72,.15-.97,.78-1.14,1.61-1.09,.88,.05,1.78,.14,2.66,.08,1.62-.11,2.14-.8,1.69-2.35-.52-1.79-1.19-3.54-1.8-5.31-.24-.7-.54-1.38-.7-2.1-.66-2.9,2.24-6.1,5.13-5.68,1.47,.21,2.45,1.25,2.32,2.54-.18,1.63-1.46,1.06-2.3,1.15Z"/></svg>