<?xml version="1.0" encoding="UTF-8"?><svg id="Layer_1" xmlns="http://www.w3.org/2000/svg" viewBox="0 0 459.74 413"><defs><style>.cls-1{fill:#fff;}</style></defs><g id="_1PdvTb.tif"><g><path class="cls-1" d="M459.38,313.75v4.63c-.31,1.66-.62,3.32-.92,4.98-1.91,10.57-6.75,19.54-14.8,26.68-9.16,8.11-19.93,11.74-32.17,11.73-121.05-.06-242.1-.04-363.15-.04-.98,0-1.98,.09-2.94-.04-3.64-.5-7.39-.64-10.88-1.68-17.56-5.2-28.42-16.93-32.87-34.61-.58-2.3-.87-4.68-1.29-7.02,0-1.68,0-3.36,0-5.05,1.4-4.04,4.4-4.96,8.39-4.86,8.27,.21,16.55,.06,24.83,.06h2.58v-3.03c0-74.74,0-149.48,0-224.22,0-1.89-.25-3.83,.1-5.66,2.94-15.68,14.71-24.01,27.68-24.37,.77,.03,1.54,.08,2.31,.08,109.08,0,218.17,0,327.25,0,.77,0,1.54-.05,2.31-.08,2,.25,4.04,.35,5.99,.79,11.7,2.62,21.8,12.96,21.8,28.22-.03,75.07-.01,150.13-.01,225.2v3.08h2.54c8.35,0,16.7,0,25.06,0,5.51,0,6.16,.41,8.2,5.22Zm-46.68-5.36c0-.9,0-1.66,0-2.42,0-8.34,0-16.68,0-25.02,0-66.66,.01-133.31-.04-199.97,0-2.54-.26-5.21-1.07-7.59-2.45-7.2-8.85-11.26-17.21-11.26-109.7,0-219.4,.04-329.1-.08-10.11-.01-18.37,7.86-18.34,18.37,.17,75.21,.09,150.41,.09,225.62,0,.75,0,1.5,0,2.35H412.71ZM11.76,319.39c0,.95-.14,1.68,.02,2.33,1.54,6.17,3.83,12,8.14,16.84,7.51,8.44,16.87,12.38,28.23,12.37,121.14-.07,242.27-.04,363.41-.05,.91,0,1.82,0,2.74-.03,7.77-.18,14.68-2.81,20.68-7.65,7.56-6.1,11.98-13.97,12.98-23.81H11.76Z"/><path class="cls-1" d="M230.08,73.92c54.32,0,108.65,0,162.97,0,.98,0,1.97-.03,2.95,.05,2.7,.23,4.65,2.22,4.86,4.93,.06,.77,.04,1.54,.04,2.31,0,69.6,0,139.2,0,208.8,0,.7-.04,1.4,0,2.1,.11,2.01-.88,3.24-2.79,3.59-2.59,.48-5.2,1.14-7.81,1.16-18.81,.1-37.62,.12-56.43,.04-52.42-.22-104.85-.63-157.27-.71-36.42-.06-72.85,.25-109.27,.53-6.31,.05-8.55-1.4-8.54-8.4,.11-68.9,.06-137.8,.07-206.7,0-.91-.03-1.83,.03-2.73,.2-2.7,2.16-4.69,4.86-4.92,.98-.08,1.96-.06,2.95-.06,54.46,0,108.93,0,163.39,0Zm159.86,10.75c-.96,0-1.78,0-2.61,0-104.99,0-209.98,.01-314.97,.02q-2.7,0-2.7,2.79c0,65.25,0,130.5,0,195.75v2.57H389.94V84.68Z"/><path class="cls-1" d="M262.88,171.15c17.05,0,34.09,0,51.14,0,.7,0,1.41-.03,2.1,.03,2.6,.19,4.68,2.17,4.75,4.46,.11,3.64-1.26,5.62-4.28,6.15-.55,.1-1.12,.15-1.67,.15-34.79,0-69.58,0-104.37,0-2.42,0-4.4-.77-5.56-3.05-1.68-3.29,.52-7.32,4.24-7.7,.76-.08,1.54-.04,2.31-.04,17.12,0,34.23,0,51.35,0Z"/><path class="cls-1" d="M305.65,148.45c-17.33,0-34.65,0-51.98,0-3.7,0-6.07-2.01-6.18-5.16-.1-2.73,1.53-4.9,4.22-5.48,.95-.2,1.95-.21,2.92-.21,34.16,0,68.33,0,102.49,.02,.7,0,1.41-.03,2.1,.06,3.26,.42,4.68,2.39,4.57,6.26-.07,2.44-2.08,4.3-4.89,4.5-.7,.05-1.4,.02-2.1,.02-17.05,0-34.09,0-51.14,0Z"/><path class="cls-1" d="M277.1,215.37c-17.4,0-34.79,0-52.19,0-3.86,0-6.23-2.22-6.1-5.63,.09-2.43,1.72-4.45,4.1-4.94,1.02-.21,2.09-.25,3.13-.25,34.09-.01,68.18-.01,102.28,0,.98,0,1.97,.04,2.93,.24,2.86,.6,4.08,2.58,3.91,6.19-.11,2.17-1.99,4.05-4.39,4.34-.76,.09-1.54,.05-2.31,.05-17.12,0-34.23,0-51.35,0Z"/><path class="cls-1" d="M319.99,238.06c17.26,0,34.51,0,51.77,.02,1.04,0,2.13,.06,3.1,.37,2.53,.81,3.37,2.44,3.3,6.01-.03,1.85-1.46,3.57-3.58,4.13-.87,.23-1.8,.31-2.7,.31-34.51,.01-69.02,.02-103.53,0-3.94,0-6.34-1.89-6.51-5.06-.18-3.29,2.09-5.72,5.55-5.76,4.77-.06,9.54-.02,14.31-.02,12.77,0,25.53,0,38.3,0Z"/><path class="cls-1" d="M154.26,175.77c8.63,0,17.26,0,25.89,0,3.66,0,5.92,1.85,5.94,4.77,.03,4.01-1.76,6.01-5.8,6.02-17.33,.05-34.66,.03-51.99,0-.96,0-1.97-.2-2.86-.55-2.15-.85-3.72-3.56-3.35-5.53,.5-2.72,2.77-4.69,5.65-4.71,8.21-.04,16.42-.02,24.63-.02,.63,0,1.26,0,1.89,0Z"/><path class="cls-1" d="M161.32,153.1c-8.27,0-16.54,0-24.81,0-.7,0-1.41,.03-2.1-.04-2.69-.28-5.06-2.68-5.19-5.22-.12-2.37,2.05-4.93,4.67-5.43,.75-.14,1.53-.16,2.3-.16,16.89,0,33.78,0,50.67,0,.49,0,.98-.01,1.47,.04,3.48,.35,5.08,2.43,4.95,6.4-.08,2.37-2.35,4.35-5.26,4.4-4.76,.07-9.53,.02-14.3,.03-4.14,0-8.27,0-12.41,0Z"/><path class="cls-1" d="M132.62,220.01c-8.76,0-17.53,.03-26.29-.02-3.51-.02-5.86-2.37-5.75-5.57,.09-2.48,1.83-4.57,4.28-5.02,.96-.17,1.95-.2,2.93-.2,16.55-.01,33.09,0,49.64,0,.77,0,1.55,0,2.31,.09,3.05,.37,4.98,2.58,4.89,5.54-.09,2.87-2.27,5-5.3,5.16-.7,.04-1.4,.02-2.1,.02-8.2,0-16.41,0-24.61,0Z"/><path class="cls-1" d="M139.92,108.83c8.62,0,17.25,.02,25.87-.01,2.64-.01,4.67,.89,5.71,3.42,1.31,3.22-.77,6.79-4.21,7.24-1.04,.14-2.1,.11-3.15,.11-16.33,0-32.67,0-49,0-.84,0-1.69,0-2.52-.08-2.83-.3-4.9-2.63-4.85-5.4,.05-2.78,2.18-5.11,5.03-5.21,3.78-.13,7.57-.06,11.36-.07,5.26,0,10.52,0,15.77,0Z"/></g></g></svg>