<?xml version="1.0" encoding="UTF-8"?><svg id="Layer_1" xmlns="http://www.w3.org/2000/svg" viewBox="0 0 459.74 413"><defs><style>.cls-1{fill:#fff;}</style></defs><g id="Yg910Z.tif"><g><path class="cls-1" d="M376.17,304.9c.17,.84,.82,1.18,1.3,1.63,6.47,6.23,11.61,13.38,15.43,21.43,5.63,11.86,8.42,24.36,8.71,37.41,.06,2.68,1.21,4.36,3.39,4.97,3.49,.96,6.56-1.29,6.56-4.95,.01-9.31-1.56-18.41-4.18-27.33-3.92-13.36-10.3-25.44-19.99-35.75-.87-.92-1.6-1.21-2.85-.67-2.72,1.16-5.51,2.16-8.38,3.26Z"/><path class="cls-1" d="M51.3,371.15c-3.1-1.65-3.97-4.21-3.77-7.57,1.21-20.49,6.88-39.43,20.12-55.77,1.33-1.64,2.86-3.12,4.24-4.72,.72-.84,1.47-1.06,2.54-.68,2.86,1,5.74,1.93,8.84,2.96-1.94,1.96-3.84,3.77-5.61,5.69-10.06,10.9-15.68,23.86-18.46,38.12-1.09,5.58-1.71,11.21-1.66,16.9,.02,2.59-1.68,3.96-3.74,5.09h-2.49Z"/><path class="cls-1" d="M42.09,113.73c.56-5.87,3.99-10.1,8.39-13.7,6.83-5.58,14.82-9.16,23.08-12.16,16.19-5.89,33-9.43,50-12.25,13.64-2.26,27.36-4.08,41.15-4.98,4.98-.33,8.12-2.07,11.41-5.63,13.15-14.21,29.73-22.06,49.39-23.05,24.6-1.24,44.55,8.13,60.4,26.23,1,1.15,1.94,1.79,3.57,1.92,18.13,1.49,36.2,3.49,54.09,6.77,17.35,3.19,34.52,7.03,50.71,14.18,6.14,2.71,11.96,5.93,16.85,10.57,4.27,4.06,6.47,8.78,6.46,14.77-.1,49.52-.21,99.04,.08,148.55,.05,8.91-3.62,15.11-10.5,20.11-8.27,6.01-17.72,9.62-27.43,12.67-19.95,6.28-40.5,9.78-61.21,12.48-13.64,1.78-27.35,2.97-41.09,3.86-21.36,1.38-42.74,1.85-64.14,1.38-19.17-.42-38.3-1.47-57.38-3.41-20.72-2.11-41.28-5.07-61.48-10.2-12.75-3.24-25.23-7.15-36.67-13.72-4.44-2.55-8.56-5.48-11.78-9.48-2.19-2.72-3.58-5.75-3.87-9.23,.02-.54,.07-1.08,.07-1.62M316.84,131.23c1.22,0,2.18-.06,3.14,.01,3.02,.21,4.75,1.88,4.77,4.8,.05,7.23,.05,14.46,0,21.68-.02,2.78-1.83,4.47-4.69,4.66-1.01,.07-2.06-.18-3.22,.24,0,2.07,.01,4.15,0,6.23-.06,9.28-6.69,15.8-16.22,15.83-1.64,0-2.38,.43-2.93,2-5.2,14.8-12.81,28.29-24.04,39.55-2.58,2.59-2.89,5.1-2.42,8.17,.14,.93,.36,1.85,.6,2.77,2.72,10.51,9.44,18.19,18.34,24.2,12.92,8.72,27.63,12.91,42.9,15.27,13.26,2.05,25.91,5.53,37.4,12.48,.9,.55,1.71,.58,2.73,.27,4.68-1.44,9.34-2.94,13.88-4.79,5.44-2.21,10.75-4.65,15.4-8.27,3.37-2.62,5.18-5.73,5.15-10.22-.42-49.55,.5-99.11-.47-148.66-.08-4.37-1.72-7.5-4.98-10.13-1.66-1.34-3.41-2.55-5.26-3.6-8.91-5.07-18.58-8.31-28.45-11.04-20.95-5.79-42.36-9.15-63.97-11.42-19.55-2.05-39.13-3.53-58.79-3.9-20.22-.37-40.42,.22-60.61,1.39-17.96,1.05-35.85,2.72-53.64,5.39-18.06,2.71-35.93,6.25-53.2,12.21-7.71,2.66-15.26,5.68-21.75,10.72-3.27,2.54-4.96,5.57-4.95,9.89,.11,49.85,.1,99.71,0,149.56,0,3.83,1.44,6.63,4.26,8.97,1.21,1,2.48,1.96,3.81,2.8,7.92,4.99,16.74,7.97,25.59,10.89,1.59,.53,2.82,.36,4.26-.48,7.64-4.49,15.94-7.44,24.55-9.59,7.91-1.97,16.05-2.81,23.95-4.85,13.24-3.41,25.83-8.14,36.16-17.28,7.97-7.05,13.14-15.58,13.95-26.29,.08-1.07-.14-1.9-.97-2.71-11.93-11.72-20.12-25.67-25.62-41.18-.58-1.63-1.31-2.12-3.04-2.13-9.49-.02-16.1-6.6-16.14-15.9-.01-2.07,0-4.15,0-6.39-.97,0-1.72,0-2.47,0-3.74-.05-5.46-1.69-5.47-5.34-.02-6.96-.03-13.92,.01-20.87,.02-3.05,1.75-4.75,4.85-4.94,.95-.06,1.9,0,3.07,0,0-4.1-.04-8,.01-11.9,.06-4.17,1.62-7.74,4.6-10.74,2.82-2.83,6.36-4.16,10.3-4.68,.55-5.54,1.67-10.8,3.84-15.82,.28-.64,.34-1.51,1.34-1.62,3.46-.37,6.92-.71,10.66-.77-1.5,3.01-2.73,5.79-3.65,8.69-.93,2.94-1.74,5.92-2.07,9.02h124.49c-.92-6.26-3.04-11.98-5.82-17.79,3.55,.25,6.71,.47,9.88,.68,1.1,.07,1.64,.59,1.98,1.67,1.48,4.64,2.78,9.32,3.6,14.12,.21,1.24,.63,1.87,2.1,2.15,8.18,1.54,13.22,7.63,13.26,15.76,.02,3.64,0,7.28,0,11.23Zm-119.1,105.23c-.21,.75-.37,1.26-.5,1.79-.13,.52-.21,1.06-.35,1.58-3.46,12.76-11.47,22.29-22.39,29.68-13.4,9.08-28.6,13.68-44.44,16.48-8.79,1.56-17.52,3.25-25.81,6.6-.69,.28-1.51,.4-2.29,1.27,42.36,8.97,84.98,11.99,127.89,11.98,42.92,0,85.55-3.14,127.58-12.17-.44-.42-.87-.61-1.31-.79-9.31-3.84-19.21-5.42-29.05-7.32-14.13-2.73-27.71-7.02-39.96-14.65-10.71-6.67-19.16-15.27-23.6-27.14-.87-2.32-1.45-4.75-2.2-7.23-21.13,13.22-42.28,13.51-63.59-.09Zm-45.31-79.08c.65-.37,1.13-.62,1.59-.9,7.32-4.37,14.63-8.74,21.95-13.11,1.17-.7,2.38-1.36,3.37,.23,.99,1.57-.25,2.33-1.28,3.13-.32,.25-.7,.44-1.05,.65-6.52,3.96-12.86,8.23-19.62,11.76-4.22,2.2-5.67,4.9-5.19,9.39,.44,4.14,2.49,6.47,6.82,6.47,14.26,.01,28.53-.02,42.79,.04,1.47,0,2.19-.51,2.88-1.7,3.03-5.23,6.18-10.39,9.27-15.59,1.26-2.13,2.8-4.01,4.84-5.48,8.86-6.39,20.47-3.93,26.48,5.65,3.14,5.01,6.22,10.05,9.25,15.12,.67,1.12,1.41,1.55,2.78,1.54,13.92-.06,27.84-.03,41.75-.04,.76,0,1.54,0,2.27-.18,3.14-.72,4.58-2.89,4.58-7,.01-15.6,0-31.21,0-46.81,0-.61-.04-1.22-.13-1.81-.49-3.48-2.72-5.44-6.29-5.44-46.88-.01-93.75-.01-140.63,0-4.17,0-6.57,2.38-6.58,6.42-.02,4.66,0,9.32,0,13.98,0,4.57,0,9.15,0,13.73,.85,.07,1.29-.43,1.8-.73,3.96-2.34,7.91-4.71,11.87-7.07,3.48-2.08,6.95-4.17,10.45-6.23,1.02-.6,2.09-.93,2.82,.4,.68,1.23,.1,2.04-1.02,2.64-.36,.19-.71,.42-1.06,.64-6.99,4.24-13.86,8.7-21.02,12.64-3.3,1.82-4.5,3.97-3.7,7.66Zm134.93,27.35c-.96,0-1.7,0-2.43,0-10.6,0-21.19-.06-31.78,.04-2.86,.03-4.59-1.05-5.96-3.46-3.54-6.26-7.21-12.46-10.98-18.6-3.58-5.83-11.01-5.63-14.45,.28-3.31,5.69-6.6,11.4-9.88,17.11-.27,.47-.49,.96-.7,1.46-1.04,2.45-2.37,2.93-5.12,2.79-4.42-.21-8.86-.07-13.29-.08-6.92,0-13.83,0-20.79,0,.02,.32-.02,.53,.05,.71,5.97,15.96,14.85,30.03,28.51,40.83,18.2,14.39,38.47,14.62,57.09,.79,10.85-8.06,18.65-18.54,24.76-30.31,1.9-3.66,3.6-7.41,4.98-11.56Zm-14.18-115.76c-26.39-25.05-66.92-21.12-86.97,0,29.01-1.88,57.7-1.9,86.97,0Z"/><path class="cls-1" d="M376.17,304.9c2.87-1.1,5.66-2.1,8.38-3.26,1.25-.54,1.98-.25,2.85,.67,9.69,10.31,16.07,22.39,19.99,35.75,2.62,8.92,4.19,18.02,4.18,27.33,0,3.66-3.08,5.91-6.56,4.95-2.18-.6-3.33-2.29-3.39-4.97-.29-13.05-3.08-25.55-8.71-37.41-3.82-8.05-8.96-15.2-15.43-21.43-.48-.46-1.14-.79-1.3-1.63Z"/><path class="cls-1" d="M337.24,192.41c0-16.07,.05-32.15-.04-48.22-.02-3.06,1.25-4.86,4.05-6.11,18.05-8.04,36.05-16.17,54.08-24.26,.38-.17,.76-.33,1.14-.48,2.46-.91,4.8-.32,6.13,1.52,1.27,1.77,1.03,4.64-.53,6.4-.74,.84-1.69,1.37-2.71,1.82-16.79,7.48-33.57,14.98-50.36,22.44-1.28,.57-1.82,1.22-1.81,2.69,.05,29.51,.06,59.03-.01,88.54,0,1.73,.76,2.3,2.15,2.87,16.71,6.81,33.4,13.67,50.09,20.51,3.25,1.33,4.4,3.03,3.93,5.8-.54,3.14-3.47,4.8-6.5,3.58-18.83-7.62-37.65-15.28-56.49-22.89-2.33-.94-3.12-2.68-3.12-4.97,0-8.51,0-17.02,0-25.53,0-7.9,0-15.8,0-23.71Z"/><path class="cls-1" d="M122.82,192.85c0,16.14,0,32.28,0,48.43,0,3.84-.68,4.83-4.24,6.29-18.03,7.39-36.07,14.78-54.1,22.17-3.21,1.31-5.89,.32-7.14-2.68-1.06-2.54,.19-4.89,3.35-6.19,16.82-6.9,33.63-13.82,50.49-20.65,1.67-.68,2.19-1.5,2.19-3.26-.06-29.45-.06-58.9,0-88.34,0-1.76-.55-2.58-2.18-3.3-16.94-7.49-33.83-15.07-50.74-22.64-2.42-1.08-3.53-2.85-3.29-5.08,.22-2.03,1.68-3.64,3.73-4.12,1.27-.29,2.47-.02,3.63,.49,18.31,8.13,36.62,16.26,54.93,24.39,2.33,1.03,3.4,2.69,3.39,5.25-.06,16.41-.03,32.82-.03,49.24Z"/><path class="cls-1" d="M68.44,192.39c0-15.74,0-31.47,0-47.21,0-.41,0-.81,0-1.22-.02-1.47,.3-2.94,2.07-2.93,1.79,.01,2,1.47,2,2.95-.02,32.22-.02,64.43,0,96.65,0,1.48-.21,2.92-2.04,2.91-1.81,0-2.05-1.48-2.05-2.94,0-16.07,0-32.15,0-48.22Z"/><path class="cls-1" d="M387.57,192.4c0-15.74,0-31.47,0-47.21,0-.41,0-.81,0-1.22-.02-1.47,.29-2.94,2.06-2.94,1.79,0,2.02,1.46,2.02,2.94-.02,32.22-.02,64.43,0,96.65,0,1.48-.2,2.92-2.02,2.92-1.81,0-2.06-1.46-2.06-2.93,0-16.07,0-32.15,0-48.22Z"/><path class="cls-1" d="M87.91,192.15c0-9.85,0-19.7,0-29.55,0-.67-.04-1.37,.12-2.01,.23-.92,.86-1.53,1.92-1.53,1.07,0,1.68,.61,1.92,1.53,.15,.57,.11,1.2,.11,1.81,0,19.97,0,39.94,0,59.91,0,.54,.06,1.11-.08,1.61-.28,.98-.94,1.71-2.07,1.65-1.01-.05-1.63-.75-1.85-1.66-.14-.58-.08-1.21-.08-1.81,0-9.99,0-19.97,0-29.96Z"/><path class="cls-1" d="M368.73,192.41c0-9.99,0-19.98,0-29.96,0-.67-.06-1.37,.11-2.01,.23-.85,.89-1.36,1.84-1.35,.94,0,1.61,.49,1.82,1.37,.15,.64,.12,1.34,.12,2.01,0,19.91,0,39.82,0,59.72,0,.54,.02,1.08-.04,1.62-.11,1.11-.84,1.76-1.91,1.77-1.09,0-1.76-.71-1.91-1.78-.07-.53-.04-1.08-.04-1.62,0-9.92,0-19.84,0-29.76Z"/></g></g></svg>