<?xml version="1.0" encoding="UTF-8"?><svg id="Layer_1" xmlns="http://www.w3.org/2000/svg" viewBox="0 0 459.74 413"><defs><style>.cls-1{fill:#0078bc;}</style></defs><g id="IIk3wo.tif"><path class="cls-1" d="M72,19.4c105.24,0,210.48,0,315.72,0,.28,.2,.53,.52,.83,.58,17.52,3.52,28.37,16.57,28.38,34.6,.04,101.32,.07,202.63-.13,303.95-.01,5.3-1.26,11.02-3.51,15.81-6.28,13.34-17.62,19.23-32.14,19.24-63.32,.02-126.65,0-189.97,0-37.51,0-75.01-.02-112.52,.01-12.08,0-22.32-4.09-29.27-14.17-2.94-4.27-4.46-9.53-6.63-14.34,0-105.73,0-211.46,0-317.18,.27-.63,.62-1.23,.79-1.89,2.1-8.28,6.17-15.46,13.43-20.02,4.58-2.88,9.99-4.44,15.02-6.59ZM248.63,180.1c-.3-.43-.53-.6-.53-.78-.04-3.9-.04-7.79-.08-11.69-.07-7.08-3.75-10.77-10.84-10.78-13.15-.03-26.31-.02-39.46,0-7.82,0-11.44,3.53-11.44,11.29-.02,57.61-.02,115.23,0,172.84,0,7.87,3.5,11.38,11.32,11.4,12.91,.03,25.82,.02,38.73,0,8.32-.01,11.69-3.41,11.69-11.75,0-29.48,.04-58.95-.02-88.43-.02-10.06,2.13-19.6,6.81-28.45,6.67-12.61,17.45-17.74,31.47-16.49,12.52,1.11,21.03,7.8,24.56,19.62,2.2,7.36,3.52,15.24,3.62,22.91,.4,30.57,.15,61.14,.16,91.72,0,7.23,3.47,10.84,10.64,10.87,13.89,.06,27.77,.05,41.66,0,7.23-.03,10.72-3.56,10.72-10.78-.01-32.4,.11-64.8-.15-97.2-.14-17.2-1.63-34.3-8.02-50.56-7.85-19.98-21.82-33.02-43.06-37.74-12.28-2.73-24.62-2.66-37.01-.79-14.62,2.21-27.12,8.27-36.73,19.75-1.36,1.63-2.65,3.33-4.02,5.05Zm-90.11,74.6c0-28.73,.02-57.46-.01-86.19,0-7.94-3.74-11.64-11.6-11.66-12.66-.02-25.32-.02-37.98,0-8.3,0-12.03,3.73-12.03,12.03,0,57.1,0,114.2,0,171.29,0,8.58,3.59,12.18,12.22,12.2,12.3,.03,24.59,.02,36.89,0,9.17-.01,12.51-3.36,12.52-12.58,0-28.37,0-56.73,0-85.1Zm-30.8-114.46c22.12-.02,40.01-17.92,39.9-39.91-.11-21.85-17.9-39.56-39.84-39.66-21.96-.1-39.87,17.89-39.79,39.97,.08,21.97,17.79,39.63,39.73,39.6Z"/></g></svg>