<?xml version="1.0" encoding="UTF-8"?><svg id="Layer_1" xmlns="http://www.w3.org/2000/svg" viewBox="0 0 459.74 413"><defs><style>.cls-1{fill:#0078bc;}</style></defs><g id="_2tclqP.tif"><g><path class="cls-1" d="M415.65,112.35c.44-.17,.88-.35,1.32-.52v188.76l-.16,.24s-.29-.03-.29-.03c-.05-1.1-.14-2.2-.14-3.31,0-60.39,0-120.78-.03-181.17,0-1.33-.45-2.66-.69-3.99Z"/><path class="cls-1" d="M415.65,112.35c.24,1.33,.69,2.66,.69,3.99,.03,60.39,.03,120.78,.03,181.17,0,1.1,.09,2.2,.14,3.31-1,12.37-11.66,23.01-24.01,23.95-1.5,.11-3.01,.14-4.52,.14-105.42,0-210.85-.07-316.27,.09-14.46,.02-24.42-8.9-27.36-18.62-.92-3.03-1.51-6.3-1.51-9.45-.09-60.3-.07-120.6-.05-180.9,0-1.28,.17-2.55,.31-4.52,2.95,2.46,5.46,4.51,7.93,6.61,49.83,42.43,99.64,84.88,149.49,127.27,17.2,14.63,41.11,14.62,58.31,.02,51.89-44.04,103.75-88.11,155.62-132.16,.38-.32,.8-.6,1.2-.9Z"/><path class="cls-1" d="M400.16,88.32c-.89,.96-2.16,2.77-2.72,3.25-44.79,38.1-89.59,76.19-134.38,114.28-7.2,6.12-14.4,12.24-21.58,18.38-8.07,6.9-15.13,7.08-23.2,.23-33.34-28.28-66.64-56.62-99.95-84.94-18.23-15.49-58.46-49.93-60.17-51.44,0,0,339.07-.29,342,.24Z"/></g></g></svg>